<svg xmlns="http://www.w3.org/2000/svg" width="256" height="256"><path fill-opacity=".016" d="M0 128.004v128.004l128.25-.254 128.25-.254.254-127.75L257.008 0H0v128.004m.485.496c0 70.4.119 99.053.265 63.672.146-35.38.146-92.98 0-128C.604 29.153.485 58.1.485 128.5" fill="#1976D2" fill-rule="evenodd"/><path fill-opacity=".378" d="M71.25 32.234L16 64.266l.022 64.117.021 64.117 55.506 31.849 55.505 31.848 54.223-31.246c29.823-17.185 55.014-31.927 55.98-32.76 1.648-1.419 1.742-5.493 1.5-65.02l-.257-63.506-55.368-31.832c-30.453-17.508-55.653-31.787-56-31.732-.348.056-25.494 14.516-55.882 32.133M81 128.239l-.001 60.261 43.685-.5 43.685-.5 2.663-4.5 2.662-4.5-2.705-4.789-2.705-4.789-33.392-.211-33.392-.211-.276-15.236-.276-15.235 30.593-.265 30.593-.264 2.683-4.75L167.5 128l-2.683-4.75-2.683-4.75-30.567-.264-30.567-.265V88h66.518l3.113-5.169 3.112-5.169-2.691-4.581-2.692-4.581-43.68-.261-43.68-.26v60.26" fill="#1976D2" fill-rule="evenodd"/><path fill-opacity=".314" d="M71.908 32.526L17.316 64.042l-.712 63.625c-.392 34.993-.35 63.957.092 64.363C18.461 193.649 125.989 255 127.062 255c.634 0 25.858-14.266 56.053-31.702l54.9-31.702-.258-63.99-.257-63.99-54.499-31.308c-29.975-17.219-54.95-31.306-55.5-31.303-.551.003-25.567 14.188-55.593 31.521m8.551 35.724c-.263.688-.361 28.025-.218 60.75l.259 59.5 43.658.26 43.658.261 3.184-5.175 3.184-5.175-2.244-4.085c-1.235-2.247-2.681-4.648-3.215-5.336-.741-.956-8.835-1.25-34.374-1.25h-33.404l.276-14.75.277-14.75 30.273-.107c16.651-.059 30.423-.284 30.604-.5.182-.216 1.555-2.516 3.053-5.11l2.722-4.718-2.821-5.018-2.821-5.019-30.505-.264-30.505-.264-.277-14.737-.276-14.736 33.707-.264 33.707-.263 2.899-4.936 2.9-4.935-2.232-4.065c-1.228-2.235-2.669-4.626-3.203-5.314-1.413-1.821-87.569-1.821-88.266 0" fill="#1976D2" fill-rule="evenodd"/><path fill-opacity=".122" d="M124.587 66.75l44.086.271 1.314 2.455c.723 1.351 1.766 2.177 2.318 1.835.552-.341.704-.134.337.46-.367.593-.16 2.192.46 3.553.958 2.102.696 3.24-1.738 7.574l-2.864 5.1-33.25.001L102 88v29l30.25.014 30.25.015 2.75 4.986c1.512 2.742 2.741 5.548 2.731 6.236-.01.687-1.361 3.386-3.002 5.999l-2.983 4.75H102v29h66.662l1.32 2.466c.726 1.356 1.771 2.187 2.323 1.845.552-.341.704-.134.337.46-.367.593-.16 2.192.46 3.553.958 2.102.696 3.24-1.738 7.574l-2.864 5.1-44.242.001-44.243.001-.265-61.25-.266-61.25-.242 61.344c-.239 60.605-.218 61.35 1.758 61.866 1.1.288 2 1.054 2 1.704 0 1.921 7.183 8.346 11.5 10.285 3.508 1.577 7.75 1.838 34.5 2.123 36.328.388 40.488-.258 47.626-7.396 4.577-4.576 6.057-8.972 4.971-14.763-.77-4.101-7.281-11.998-9.265-11.237-.911.35-1.309-.033-1.122-1.078.301-1.682-.876-2.163-7.466-3.052-2.066-.279-4.005-.91-4.309-1.402-.304-.492-5.814-.973-12.244-1.071-10.703-.161-11.099-.231-4.691-.823l7-.647-6.125-.176c-11.112-.321-15.989-2.204-9.215-3.559 4.107-.821 3.331-1.532-.96-.879-3.941.6-4.059 3.264-.195 4.419l2.495.745-2.398-.201c-1.319-.111-2.884-.977-3.477-1.924-1.987-3.169.726-4.27 10.767-4.372 5.111-.051 9.701-.338 10.2-.637.5-.299 2.112-.538 3.584-.531 3.262.015 10.864-3.559 15.035-7.069 3.597-3.027 6.745-9.406 6.745-13.669 0-4.46-3.339-10.988-6.983-13.651-1.768-1.292-3.665-2.218-4.216-2.058-.551.16-.754-.357-.45-1.15.463-1.206-1.664-1.464-13.089-1.586-7.503-.08-13.847-.35-14.097-.6s4.233-.462 9.962-.47c6.524-.01 9.888-.35 9.003-.911-.778-.492-3.028-.673-5-.402-2.782.383-3.25.246-2.086-.613 1.125-.83-.925-1.038-8.199-.833-6.985.197-10.063-.093-11-1.039-1.073-1.083-.808-1.127 1.514-.25 3.941 1.488 5.424 1.324 3.137-.348-1.061-.777-2.385-1.154-2.941-.84-.564.319-.643.169-.178-.339.459-.5 1.246-.966 1.75-1.035 2.984-.407 3.169-.643.985-1.254-1.338-.373 2.158-.583 7.768-.466 5.61.117 9.987-.133 9.726-.555-.261-.422.754-.767 2.254-.767s6.002-.994 10.004-2.21c5.766-1.751 8.287-3.187 12.144-6.916 5.278-5.105 6.794-9.355 5.601-15.714-.722-3.845-7.775-12.1-9.453-11.062-.556.344-1.5-.288-2.097-1.403-1.068-1.996-1.782-2.024-45.3-1.789l-44.215.24 44.087.271M165 119.941c0 .518.445 1.216.989 1.552.566.35.734-.051.393-.941-.665-1.732-1.382-2.049-1.382-.611" fill="#1976D2" fill-rule="evenodd"/></svg>